<svg width="299" height="226" viewBox="0 0 299 226" fill="none" xmlns="http://www.w3.org/2000/svg">
<circle cx="150" cy="113" r="73" fill="white"/>
<circle cx="150" cy="113" r="93.5" stroke="white" stroke-dasharray="10 10"/>
<g clip-path="url(#clip0_8_177)">
<path d="M131.934 93.5686L151.37 104.469L170.906 93.421L174.547 62.601L151.345 54.4688L128.291 62.7476L131.934 93.5686Z" fill="#B3B3B3"/>
<path d="M151.292 101.865L168.854 91.9465L172.248 64.3824L151.292 57.0902V101.865Z" fill="#A6120D"/>
<path d="M151.291 101.864V57.089L130.878 64.5135L134 92.0779L151.291 101.864Z" fill="#DD1B16"/>
<path d="M157.06 80.9259L151.292 83.6783H145.212L142.354 90.9728L137.038 91.0732L151.292 58.7162L157.06 80.9259ZM156.502 79.5401L151.33 69.0909L147.087 79.3603H151.291L156.502 79.5401Z" fill="#F2F2F2"/>
<path d="M156.144 79.3682H151.302L151.291 83.6718L157.986 83.6783L161.115 91.0744L166.202 91.1705L151.291 58.7162L151.329 69.0909L156.144 79.3682Z" fill="#B3B3B3"/>
</g>
<path d="M91 115H131V155H91V115Z" fill="#F7DF1E"/>
<path d="M101.517 148.427L104.578 146.575C105.168 147.622 105.707 148.508 106.995 148.508C108.23 148.508 109.008 148.025 109.008 146.145V133.363H112.768V146.197C112.768 150.092 110.485 151.863 107.157 151.863C104.148 151.863 102.403 150.307 101.517 148.427ZM114.81 148.023L117.87 146.252C118.677 147.568 119.723 148.535 121.575 148.535C123.133 148.535 124.125 147.755 124.125 146.682C124.125 145.393 123.107 144.937 121.388 144.185L120.448 143.782C117.737 142.627 115.937 141.177 115.937 138.115C115.937 135.298 118.087 133.148 121.442 133.148C123.832 133.148 125.55 133.982 126.785 136.157L123.858 138.037C123.213 136.882 122.515 136.425 121.442 136.425C120.342 136.425 119.642 137.123 119.642 138.037C119.642 139.163 120.342 139.62 121.952 140.32L122.892 140.72C126.087 142.09 127.885 143.487 127.885 146.628C127.885 150.012 125.227 151.863 121.657 151.863C118.165 151.863 115.91 150.2 114.81 148.025" fill="black"/>
<path fill-rule="evenodd" clip-rule="evenodd" d="M173.5 115H210.5C211.328 115 212 115.655 212 116.463V152.537C212 153.345 211.328 154 210.5 154H173.5C172.672 154 172 153.345 172 152.537V116.463C172 115.655 172.672 115 173.5 115V115ZM194.236 135.749V132.55H180V135.749H185.082V149.991H189.128V135.749H194.236ZM195.849 149.614C196.501 149.939 197.273 150.182 198.164 150.344C199.055 150.506 199.994 150.588 200.981 150.588C201.943 150.588 202.856 150.498 203.722 150.32C204.588 150.142 205.347 149.848 206 149.438C206.652 149.029 207.168 148.493 207.549 147.833C207.93 147.172 208.12 146.355 208.12 145.382C208.12 144.676 208.011 144.058 207.794 143.527C207.576 142.996 207.263 142.523 206.853 142.11C206.443 141.696 205.951 141.325 205.378 140.997C204.805 140.669 204.159 140.359 203.44 140.067C202.913 139.856 202.44 139.651 202.022 139.452C201.604 139.254 201.248 139.051 200.956 138.844C200.663 138.637 200.437 138.419 200.278 138.187C200.119 137.956 200.04 137.695 200.04 137.403C200.04 137.135 200.111 136.894 200.253 136.679C200.395 136.464 200.596 136.28 200.855 136.126C201.114 135.972 201.432 135.852 201.809 135.767C202.185 135.682 202.603 135.639 203.064 135.639C203.398 135.639 203.752 135.664 204.124 135.712C204.496 135.761 204.87 135.836 205.247 135.937C205.623 136.039 205.989 136.166 206.345 136.321C206.7 136.475 207.028 136.653 207.33 136.856V133.219C206.719 132.992 206.052 132.824 205.328 132.714C204.605 132.605 203.774 132.55 202.838 132.55C201.884 132.55 200.981 132.649 200.127 132.848C199.274 133.047 198.524 133.357 197.875 133.778C197.227 134.2 196.715 134.737 196.338 135.39C195.962 136.043 195.774 136.823 195.774 137.731C195.774 138.891 196.119 139.88 196.809 140.699C197.499 141.518 198.546 142.211 199.952 142.779C200.504 142.998 201.018 143.213 201.495 143.424C201.972 143.634 202.384 143.853 202.731 144.08C203.078 144.307 203.352 144.555 203.553 144.822C203.754 145.09 203.854 145.394 203.854 145.735C203.854 145.986 203.791 146.219 203.666 146.434C203.54 146.649 203.35 146.835 203.095 146.993C202.84 147.151 202.522 147.275 202.141 147.364C201.761 147.454 201.315 147.498 200.805 147.498C199.935 147.498 199.074 147.35 198.22 147.054C197.367 146.758 196.577 146.314 195.849 145.722V149.614Z" fill="#4078C0"/>
<path d="M246.2 68H251L239 88.981L227 68H236.18L239 72.865L241.76 68H246.2Z" fill="#41B883"/>
<path d="M227 68L239 88.981L251 68H246.2L239 80.589L231.74 68H227Z" fill="#41B883"/>
<path d="M231.74 68L239 80.65L246.2 68H241.76L239 72.865L236.18 68H231.74Z" fill="#35495E"/>
<path d="M145.904 15.4816H151.422V15.9181H146.41V19.2034H151.123V19.6399H146.41V23.2469H151.48V23.6834H145.904V15.4816ZM151.917 15.4816H152.503L155.101 19.0886L157.757 15.4816L161.369 10.9L155.435 19.4676L158.493 23.6834H157.883L155.101 19.8467L152.308 23.6834H151.71L154.791 19.4676L151.917 15.4816ZM158.711 15.9181V15.4816H165V15.9181H162.103V23.6834H161.597V15.9181H158.711Z" fill="#111111"/>
<path d="M139 15.4816H139.632L148.352 28.4667L144.748 23.6834L139.529 16.1019L139.506 23.6834H139V15.4816Z" fill="#111111"/>
<path d="M238.515 178.55C239.102 179.59 239.159 180.685 238.671 181.551C238.183 182.417 237.23 182.912 236.053 182.912H233.838C233.864 182.49 233.881 182.065 233.881 181.637C233.881 181.157 233.859 180.684 233.827 180.213L235.285 180.211C235.643 180.211 235.933 179.914 235.933 179.548C235.933 179.437 235.906 179.329 235.855 179.231L226.566 162.758C226.511 162.657 226.43 162.572 226.331 162.513C226.232 162.454 226.119 162.422 226.003 162.422C225.891 162.423 225.78 162.452 225.683 162.509C225.586 162.565 225.505 162.646 225.448 162.743L223.974 165.358C228.457 168.805 231.471 174.147 231.882 180.211C231.915 180.682 231.937 181.155 231.937 181.636C231.937 182.064 231.918 182.489 231.893 182.91H224.657C224.744 182.012 224.738 181.107 224.64 180.211C224.297 176.976 222.757 173.987 220.323 171.829L219.308 173.629C221.142 175.374 222.317 177.699 222.635 180.211C222.696 180.677 222.729 181.153 222.729 181.636C222.729 182.066 222.701 182.492 222.653 182.91H215.947C214.77 182.91 213.817 182.414 213.329 181.548C212.842 180.682 212.898 179.589 213.485 178.548L214.862 176.139C215.651 176.573 216.362 177.135 216.966 177.802L216.146 179.229C216.078 179.355 216.052 179.499 216.073 179.64C216.093 179.781 216.157 179.913 216.257 180.014C216.379 180.139 216.543 180.209 216.716 180.209H219.969C219.704 178.658 219.002 177.214 217.946 176.046C217.341 175.378 216.628 174.815 215.838 174.38L219.472 167.941C220.243 168.381 220.975 168.888 221.661 169.455C223.264 170.786 224.587 172.422 225.553 174.268C226.519 176.114 227.11 178.134 227.29 180.209H229.237C229.051 177.787 228.37 175.428 227.236 173.279C226.102 171.13 224.538 169.237 222.643 167.718C221.949 167.162 221.213 166.661 220.442 166.218L223.544 160.722C224.129 159.681 225.027 159.083 226.003 159.083C226.979 159.083 227.876 159.681 228.463 160.724L238.515 178.55Z" fill="#111111"/>
<g clip-path="url(#clip1_8_177)">
<path d="M75.8568 175.292L82.9139 175.337C83.1165 175.342 83.3138 175.402 83.4847 175.511C83.6555 175.62 83.7935 175.774 83.8836 175.955C83.9738 176.137 84.0127 176.339 83.9963 176.541C83.9799 176.743 83.9088 176.937 83.7905 177.101L73.3756 191.026C71.8049 189.844 70.7665 188.088 70.488 186.142C70.2096 184.197 70.7137 182.22 71.8899 180.645L75.8568 175.292Z" fill="url(#paint0_linear_8_177)"/>
<path d="M71.868 180.641L64.8369 180.6C64.6353 180.593 64.4394 180.531 64.2701 180.422C64.1008 180.312 63.9644 180.158 63.8756 179.977C63.7868 179.796 63.7487 179.594 63.7656 179.393C63.7825 179.192 63.8536 179 63.9714 178.836L74.3009 165.026C75.0813 165.611 75.7388 166.345 76.2358 167.184C76.7329 168.024 77.0597 168.953 77.1976 169.918C77.3356 170.884 77.282 171.868 77.0399 172.813C76.7978 173.758 76.3719 174.646 75.7866 175.426L71.868 180.641Z" fill="#2684FF"/>
</g>
<path d="M69.3333 75.4827C69.2889 75.0482 69.2148 74.5496 69.0667 73.994C68.9185 73.4455 68.6963 72.84 68.3704 72.2131C68.0445 71.5863 67.6222 70.9381 67.0741 70.3041C66.8593 70.0548 66.6222 69.8126 66.3704 69.5775C66.7482 68.1315 65.9111 66.8778 65.9111 66.8778C64.4667 66.7923 63.5482 67.3123 63.2074 67.5474C63.1482 67.526 63.0963 67.4975 63.037 67.4762C62.7926 67.3836 62.5407 67.291 62.2741 67.2126C62.0148 67.1342 61.7482 67.063 61.4741 66.9989C61.2 66.9348 60.9259 66.8849 60.6445 66.8422C60.5926 66.8351 60.5482 66.8279 60.4963 66.8208C59.8667 64.8833 58.0593 64.0712 58.0593 64.0712C56.037 65.3036 55.6593 67.0274 55.6593 67.0274C55.6593 67.0274 55.6519 67.063 55.637 67.1271C55.5259 67.1556 55.4148 67.1912 55.3037 67.2197C55.1482 67.2625 54.9926 67.3194 54.8445 67.3764C54.6889 67.4334 54.5407 67.4904 54.3852 67.5545C54.0815 67.6827 53.7778 67.8252 53.4815 67.9819C53.1926 68.1386 52.9111 68.3096 52.637 68.4877C52.6 68.4734 52.563 68.4592 52.563 68.4592C49.763 67.4334 47.2815 68.6657 47.2815 68.6657C47.0519 71.5293 48.4 73.3315 48.6667 73.6592C48.6 73.8373 48.5407 74.0153 48.4815 74.1934C48.2741 74.8416 48.1185 75.5041 48.0222 76.1951C48.0074 76.2948 47.9926 76.3945 47.9852 76.4942C45.3926 77.7266 44.6296 80.2411 44.6296 80.2411C46.7852 82.6274 49.3037 82.777 49.3037 82.777L49.3111 82.7699C49.6296 83.3183 50 83.8383 50.4148 84.3299C50.5926 84.5364 50.7704 84.7288 50.963 84.9211C50.1778 87.0866 51.0741 88.8816 51.0741 88.8816C53.4741 88.9671 55.0519 87.8701 55.3852 87.6208C55.6222 87.6992 55.8667 87.7704 56.1111 87.8274C56.8519 88.0126 57.6074 88.1194 58.363 88.1479C58.5482 88.1551 58.7407 88.1622 58.9259 88.1551H59.0148H59.0741H59.1926L59.3111 88.1479V88.1551C60.4445 89.7079 62.4296 89.9288 62.4296 89.9288C63.8445 88.497 63.9259 87.0723 63.9259 86.766C63.9259 86.766 63.9259 86.7589 63.9259 86.7446C63.9259 86.7162 63.9259 86.7019 63.9259 86.7019C63.9259 86.6805 63.9259 86.6592 63.9259 86.6378C64.2222 86.4383 64.5037 86.2247 64.7704 85.9896C65.3333 85.4981 65.8296 84.9353 66.2445 84.3299C66.2815 84.2729 66.3185 84.2159 66.3556 84.1589C67.9556 84.2444 69.0889 83.2044 69.0889 83.2044C68.8222 81.6016 67.8741 80.8181 67.6741 80.6685C67.6741 80.6685 67.6667 80.6614 67.6519 80.6542C67.637 80.6471 67.637 80.64 67.637 80.64C67.6296 80.6329 67.6148 80.6257 67.6 80.6186C67.6074 80.5189 67.6148 80.4263 67.6222 80.3266C67.637 80.1556 67.637 79.9775 67.637 79.8066V79.6784V79.6142V79.5786C67.637 79.5359 67.637 79.5501 67.637 79.5359L67.6296 79.429L67.6222 79.2866C67.6222 79.2367 67.6148 79.194 67.6074 79.1512C67.6 79.1085 67.6 79.0586 67.5926 79.0159L67.5778 78.8805L67.5556 78.7452C67.5259 78.5671 67.4963 78.3962 67.4519 78.2181C67.2815 77.5271 67 76.8718 66.637 76.2805C66.2667 75.6893 65.8074 75.1693 65.2815 74.7277C64.763 74.286 64.1778 73.9299 63.5704 73.6663C62.9556 73.4027 62.3185 73.2318 61.6815 73.1534C61.363 73.1107 61.0445 73.0964 60.7259 73.1036H60.6074H60.5778C60.5704 73.1036 60.5333 73.1036 60.5407 73.1036H60.4889L60.3704 73.1107C60.3259 73.1107 60.2815 73.1178 60.2445 73.1178C60.0815 73.132 59.9185 73.1534 59.763 73.1819C59.1259 73.2959 58.5259 73.5167 58 73.823C57.4741 74.1293 57.0148 74.5068 56.6445 74.9342C56.2741 75.3616 55.9852 75.8389 55.7852 76.3304C55.5852 76.8219 55.4741 77.3348 55.4445 77.8263C55.437 77.9474 55.437 78.0756 55.437 78.1967C55.437 78.2252 55.437 78.2608 55.437 78.2893L55.4445 78.389C55.4519 78.446 55.4519 78.5101 55.4593 78.5671C55.4815 78.8164 55.5333 79.0586 55.6 79.2866C55.7407 79.7496 55.963 80.1699 56.237 80.526C56.5111 80.8822 56.8445 81.1742 57.1926 81.4093C57.5407 81.6373 57.9185 81.8011 58.2889 81.9079C58.6593 82.0148 59.0296 82.0575 59.3778 82.0575C59.4222 82.0575 59.4667 82.0575 59.5037 82.0575C59.5259 82.0575 59.5482 82.0575 59.5704 82.0575C59.5926 82.0575 59.6148 82.0575 59.637 82.0504C59.6741 82.0504 59.7111 82.0433 59.7482 82.0433C59.7556 82.0433 59.7704 82.0433 59.7778 82.0362L59.8148 82.029C59.837 82.029 59.8593 82.0219 59.8815 82.0219C59.9259 82.0148 59.963 82.0077 60.0074 82.0005C60.0519 81.9934 60.0889 81.9863 60.1259 81.972C60.2074 81.9578 60.2815 81.9293 60.3556 81.9079C60.5037 81.8581 60.6519 81.8011 60.7778 81.737C60.9111 81.6729 61.0296 81.5945 61.1482 81.5233C61.1778 81.5019 61.2148 81.4805 61.2445 81.452C61.363 81.3594 61.3852 81.1885 61.2889 81.0745C61.2074 80.9748 61.0593 80.9463 60.9407 81.0104C60.9111 81.0247 60.8815 81.0389 60.8519 81.0531C60.7482 81.103 60.6445 81.1457 60.5333 81.1814C60.4222 81.217 60.3037 81.2455 60.1852 81.2668C60.1259 81.274 60.0667 81.2811 60 81.2882C59.9704 81.2882 59.9407 81.2953 59.9037 81.2953C59.8741 81.2953 59.837 81.2953 59.8148 81.2953C59.7852 81.2953 59.7556 81.2953 59.7259 81.2953C59.6889 81.2953 59.6519 81.2953 59.6148 81.2882C59.6148 81.2882 59.5926 81.2882 59.6074 81.2882H59.5926H59.5704C59.5556 81.2882 59.5333 81.2882 59.5185 81.2811C59.4815 81.274 59.4519 81.274 59.4148 81.2668C59.1407 81.2312 58.8667 81.1529 58.6074 81.0389C58.3407 80.9249 58.0889 80.7682 57.8593 80.5688C57.6296 80.3693 57.4296 80.1342 57.2741 79.8636C57.1185 79.5929 57.0074 79.2937 56.9556 78.9803C56.9333 78.8236 56.9185 78.6597 56.9259 78.503C56.9259 78.4603 56.9333 78.4175 56.9333 78.3748C56.9333 78.389 56.9333 78.3677 56.9333 78.3677V78.3534V78.3178C56.9333 78.2964 56.9407 78.2751 56.9407 78.2537C56.9482 78.1682 56.963 78.0827 56.9778 77.9973C57.1037 77.3134 57.4593 76.6438 58.0074 76.1381C58.1482 76.0099 58.2963 75.8959 58.4519 75.789C58.6074 75.6822 58.7778 75.5896 58.9556 75.5112C59.1333 75.4329 59.3111 75.3688 59.5037 75.3189C59.6889 75.269 59.8815 75.2405 60.0815 75.2192C60.1778 75.212 60.2741 75.2049 60.3778 75.2049C60.4074 75.2049 60.4222 75.2049 60.4445 75.2049H60.5259H60.5778C60.6 75.2049 60.5778 75.2049 60.5852 75.2049H60.6074L60.6889 75.212C60.9037 75.2263 61.1111 75.2548 61.3185 75.3047C61.7333 75.3901 62.1407 75.5397 62.5185 75.7392C63.2741 76.1452 63.9185 76.772 64.3111 77.5271C64.5111 77.9047 64.6519 78.3107 64.7185 78.731C64.7333 78.8378 64.7482 78.9447 64.7556 79.0515L64.763 79.1299L64.7704 79.2082C64.7704 79.2367 64.7704 79.2652 64.7704 79.2866C64.7704 79.3151 64.7704 79.3436 64.7704 79.3649V79.4362V79.5145C64.7704 79.5644 64.763 79.6499 64.763 79.6997C64.7556 79.8137 64.7407 79.9348 64.7259 80.0488C64.7111 80.1627 64.6889 80.2767 64.6667 80.3907C64.6445 80.5047 64.6148 80.6186 64.5852 80.7255C64.5259 80.9463 64.4519 81.1671 64.363 81.3879C64.1852 81.8153 63.9482 82.2285 63.6667 82.606C63.0963 83.3611 62.3185 83.9737 61.4296 84.3655C60.9852 84.5578 60.5185 84.7003 60.037 84.7715C59.8 84.8142 59.5556 84.8356 59.3111 84.8427H59.2667H59.2296H59.1482H59.0296H58.9704C59 84.8427 58.963 84.8427 58.963 84.8427H58.9407C58.8074 84.8427 58.6815 84.8356 58.5482 84.8214C58.0296 84.7857 57.5185 84.6931 57.0148 84.5578C56.5185 84.4225 56.037 84.2301 55.5778 84.0022C54.6667 83.532 53.8445 82.891 53.2074 82.1145C52.8889 81.7299 52.6074 81.3096 52.3778 80.8751C52.1482 80.4405 51.963 79.9775 51.8296 79.5145C51.6963 79.0444 51.6148 78.5671 51.5778 78.0827L51.5704 77.9901V77.9688V77.9474V77.9047V77.8263V77.8049V77.7764V77.7194V77.6055V77.5841C51.5704 77.5841 51.5704 77.5912 51.5704 77.577V77.5342C51.5704 77.4773 51.5704 77.4131 51.5704 77.3562C51.5778 77.1211 51.6 76.8718 51.6296 76.6296C51.6593 76.3874 51.7037 76.1381 51.7556 75.8959C51.8074 75.6537 51.8667 75.4115 51.9407 75.1693C52.0815 74.692 52.2593 74.229 52.4667 73.7945C52.8889 72.9255 53.437 72.149 54.0963 71.5293C54.2593 71.3726 54.4296 71.2301 54.6074 71.0877C54.7852 70.9523 54.9704 70.8241 55.163 70.703C55.3482 70.5819 55.5482 70.4751 55.7482 70.3753C55.8445 70.3255 55.9482 70.2756 56.0519 70.2329C56.1037 70.2115 56.1556 70.1901 56.2074 70.1688C56.2593 70.1474 56.3111 70.126 56.363 70.1047C56.5704 70.0192 56.7852 69.9479 57.0074 69.8838C57.0593 69.8696 57.1185 69.8553 57.1704 69.834C57.2222 69.8197 57.2815 69.8055 57.3333 69.7912C57.4445 69.7627 57.5556 69.7342 57.6667 69.7129C57.7185 69.6986 57.7778 69.6915 57.837 69.6773C57.8963 69.663 57.9482 69.6559 58.0074 69.6416C58.0667 69.6345 58.1185 69.6203 58.1778 69.6131L58.2593 69.5989L58.3482 69.5847C58.4074 69.5775 58.4593 69.5704 58.5185 69.5633C58.5852 69.5562 58.6445 69.549 58.7111 69.5419C58.763 69.5348 58.8519 69.5277 58.9037 69.5205C58.9407 69.5134 58.9852 69.5134 59.0222 69.5063L59.1037 69.4992L59.1407 69.492H59.1852C59.2519 69.4849 59.3111 69.4849 59.3778 69.4778L59.4741 69.4707C59.4741 69.4707 59.5111 69.4707 59.4815 69.4707H59.5037H59.5482C59.6 69.4707 59.6593 69.4636 59.7111 69.4636C59.9259 69.4564 60.1482 69.4564 60.363 69.4636C60.7926 69.4778 61.2148 69.5277 61.6222 69.5989C62.4445 69.7485 63.2148 69.9978 63.9185 70.3326C64.6222 70.6603 65.2445 71.0663 65.7926 71.5079C65.8296 71.5364 65.8593 71.5649 65.8963 71.5934C65.9259 71.6219 65.963 71.6504 65.9926 71.6789C66.0593 71.7359 66.1185 71.7929 66.1852 71.8499C66.2519 71.9068 66.3111 71.9638 66.3704 72.0208C66.4296 72.0778 66.4889 72.1348 66.5482 72.1989C66.7778 72.434 66.9926 72.669 67.1852 72.9112C67.5704 73.3885 67.8815 73.8729 68.1259 74.3288C68.1407 74.3573 68.1556 74.3857 68.1704 74.4142C68.1852 74.4427 68.2 74.4712 68.2148 74.4997C68.2445 74.5567 68.2741 74.6137 68.2963 74.6707C68.3259 74.7277 68.3482 74.7775 68.3778 74.8345C68.4 74.8915 68.4296 74.9414 68.4519 74.9984C68.5407 75.212 68.6296 75.4186 68.6963 75.611C68.8074 75.9244 68.8889 76.2022 68.9556 76.4444C68.9778 76.5441 69.0741 76.6082 69.1778 76.594C69.2889 76.5868 69.3704 76.5014 69.3704 76.3945C69.3778 76.1381 69.3704 75.8318 69.3333 75.4827Z" fill="url(#paint1_linear_8_177)"/>
<g clip-path="url(#clip2_8_177)">
<path d="M135.911 205.867C135.911 206.446 135.434 206.923 134.854 206.923C134.274 206.923 133.797 206.446 133.797 205.867C133.797 205.287 134.274 204.81 134.854 204.81C135.434 204.81 135.911 205.287 135.911 205.867ZM134.854 207.332C134.274 207.332 133.797 207.81 133.797 208.389C133.797 208.968 134.274 209.446 134.854 209.446C135.434 209.446 135.911 208.968 135.911 208.389C135.911 207.81 135.434 207.332 134.854 207.332ZM141.232 207.128C141.232 209.957 138.947 212.241 136.116 212.241C133.285 212.241 131 209.957 131 207.128C131 204.299 133.285 202.015 136.116 202.015C138.947 202.015 141.232 204.299 141.232 207.128ZM139.867 207.128C139.867 205.049 138.196 203.378 136.116 203.378C134.035 203.378 132.364 205.049 132.364 207.128C132.364 209.207 134.035 210.877 136.116 210.877C138.196 210.877 139.867 209.207 139.867 207.128ZM137.378 207.332C136.798 207.332 136.32 207.81 136.32 208.389C136.32 208.968 136.798 209.446 137.378 209.446C137.957 209.446 138.435 208.968 138.435 208.389C138.435 207.81 137.957 207.332 137.378 207.332ZM137.378 204.81C136.798 204.81 136.32 205.287 136.32 205.867C136.32 206.446 136.798 206.923 137.378 206.923C137.957 206.923 138.435 206.446 138.435 205.867C138.435 205.287 137.957 204.81 137.378 204.81ZM154.976 204.026C155.01 204.026 155.044 204.06 155.078 204.094V205.185C155.078 205.253 155.01 205.287 154.976 205.287H153.168C153.1 205.287 153.066 205.219 153.066 205.185V204.128C153.066 204.06 153.134 204.026 153.168 204.026H154.976ZM154.942 205.56H151.463C151.429 205.56 151.361 205.594 151.361 205.662L150.917 207.366L150.883 207.469L150.338 205.662C150.338 205.628 150.269 205.56 150.235 205.56H148.871C148.837 205.56 148.769 205.594 148.769 205.662L148.257 207.366L148.223 207.469L148.189 207.366L147.984 206.514L147.78 205.662C147.78 205.628 147.712 205.56 147.677 205.56H144.949V204.094C144.949 204.06 144.881 203.992 144.813 204.026L143.107 204.571C143.039 204.571 143.005 204.605 143.005 204.674V205.594H142.562C142.528 205.594 142.459 205.628 142.459 205.696V206.991C142.459 207.026 142.493 207.094 142.562 207.094H143.005V208.696C143.005 209.821 143.619 210.332 144.744 210.332C145.222 210.332 145.665 210.23 145.972 210.059V208.696C145.972 208.628 145.904 208.593 145.87 208.628C145.699 208.696 145.529 208.73 145.392 208.73C145.085 208.73 144.915 208.593 144.915 208.253V207.094H145.904C145.938 207.094 146.006 207.06 146.006 206.991V205.901L147.302 210.195C147.302 210.23 147.371 210.298 147.405 210.298H148.837C148.871 210.298 148.939 210.264 148.939 210.195L149.553 208.287L149.86 209.275L150.133 210.195C150.133 210.23 150.201 210.298 150.235 210.298H151.668C151.702 210.298 151.77 210.264 151.77 210.195L153.066 205.901V210.195C153.066 210.23 153.1 210.298 153.168 210.298H154.908C154.942 210.298 155.01 210.264 155.01 210.195V205.662C155.01 205.628 154.976 205.56 154.942 205.56ZM157.227 204.026H155.488C155.453 204.026 155.385 204.06 155.385 204.128V210.161C155.385 210.195 155.419 210.264 155.488 210.264H157.227C157.261 210.264 157.329 210.23 157.329 210.161V204.094C157.329 204.06 157.295 204.026 157.227 204.026ZM159.546 204.026H157.739C157.704 204.026 157.636 204.06 157.636 204.128V205.185C157.636 205.219 157.67 205.287 157.739 205.287H159.546C159.58 205.287 159.648 205.253 159.648 205.185V204.094C159.648 204.06 159.614 204.026 159.546 204.026ZM159.512 205.56H157.773C157.739 205.56 157.67 205.594 157.67 205.662V210.127C157.67 210.161 157.704 210.23 157.773 210.23H159.512C159.546 210.23 159.614 210.195 159.614 210.127V205.662C159.614 205.628 159.58 205.56 159.512 205.56ZM165.003 207.878C165.003 209.173 163.912 210.298 162.377 210.298C160.876 210.298 159.785 209.173 159.785 207.878C159.785 206.582 160.876 205.458 162.411 205.458C163.912 205.458 165.003 206.582 165.003 207.878ZM163.161 207.912C163.161 207.435 162.82 207.06 162.411 207.094C161.968 207.094 161.661 207.469 161.661 207.912C161.661 208.355 162.002 208.73 162.411 208.73C162.854 208.73 163.161 208.355 163.161 207.912Z" fill="#F22F46"/>
</g>
<defs>
<linearGradient id="paint0_linear_8_177" x1="75.589" y1="176.339" x2="78.565" y2="185.327" gradientUnits="userSpaceOnUse">
<stop stop-color="#0052CC"/>
<stop offset="1" stop-color="#2684FF"/>
</linearGradient>
<linearGradient id="paint1_linear_8_177" x1="57.7391" y1="64.0712" x2="57.7391" y2="89.9288" gradientUnits="userSpaceOnUse">
<stop stop-color="#F05A28"/>
<stop offset="1" stop-color="#FBCA0A"/>
</linearGradient>
<clipPath id="clip0_8_177">
<rect width="49" height="50" fill="white" transform="translate(127 54)"/>
</clipPath>
<clipPath id="clip1_8_177">
<rect width="26" height="26" fill="white" transform="translate(61 165)"/>
</clipPath>
<clipPath id="clip2_8_177">
<rect width="34" height="34" fill="white" transform="translate(131 190)"/>
</clipPath>
</defs>
</svg>
